PathFileType	4	(X/Y/Z)	C:/Users/beibeiliu/ov580/test_trc/User1\sequence.2_training_dense_left.trc
DataRate	CameraRate	NumFrames	NumMarkers	Units	OrigDataRate	OrigDataStartFrame	OrigNumFrames
120	120	9	19	mm	120	92	244
Frame#	Time	ThumbCMC			ThumbMCP			ThumbIP			ThumbTip			IndexMCP			IndexPIP			IndexTip			MiddleMCP			MiddlePIP			MiddleTip			RingMCP			RingPIP			RingTip			PinkyMCP			PinkyPIP			PinkyTip			BackHand1			BackHand2			BackHand3	
		X0	Y0	Z0	X1	Y1	Z1	X2	Y2	Z2	X3	Y3	Z3	X4	Y4	Z4	X5	Y5	Z5	X6	Y6	Z6	X7	Y7	Z7	X8	Y8	Z8	X9	Y9	Z9	X10	Y10	Z10	X11	Y11	Z11	X12	Y12	Z12	X13	Y13	Z13	X14	Y14	Z14	X15	Y15	Z15	X16	Y16	Z16	X17	Y17	Z17	X18	Y18	Z18	
91	0.758333	-102.39	91.8466	0.0711033	-80.3585	64.1586	-9.07002	-69.489	42.1743	-24.0088	-66.0658	20.3314	-34.0307	-109.393	51.0183	-79.4831	-103.689	23.1639	-85.5564	-91.9863	-3.0366	-70.5804	-133.363	43.9984	-81.0808	-118.901	8.04905	-87.5524	-107.292	-17.1577	-65.2288	-153.839	29.9581	-74.5618	-143.863	0.929955	-76.5225	-128.581	-18.7634	-55.7073	-175.249	29.8419	-49.4831	-166.001	2.82488	-59.1664	-142.131	-17.1322	-54.0912	-167.87	78.0887	-31.9541	-175.223	94.8575	-5.75518	-139.651	99.4347	-23.9128	
92	0.766667	-103.432	94.4519	-2.89952	-81.9531	69.4101	-12.0378	-66.4528	48.0342	-30.808	-63.5571	25.0483	-39.7466	-112.901	52.1566	-78.2646	-100.671	21.6823	-87.7064	-88.5672	-0.234003	-72.2281	-135.613	37.3319	-81.8204	-118.169	6.63413	-86.7616	-96.3964	-15.9601	-65.077	-153.04	25.1205	-71.589	-135.73	-4.19127	-75.1171	-117.206	-18.6281	-58.3242	-171.17	20.1321	-48.5354	-157.526	-2.33004	-57.1579	-129.606	-17.9917	-52.2811	-170.366	70.2893	-30.0825	-174.585	91.4305	-1.66406	-144.991	96.9937	-21.9029	
93	0.775	-107.238	97.4114	-7.86633	-79.839	75.1898	-21.2236	-67.1192	56.8728	-33.6806	-54.5285	34.4195	-43.932	-113.046	54.8217	-82.5905	-99.6587	25.4928	-91.8007	-78.3844	3.13443	-75.1643	-130.569	33.1325	-85.581	-112.83	7.29785	-89.7459	-91.1883	-12.9309	-66.0571	-148.47	17.9766	-71.9363	-129.877	-4.90876	-75.399	-104.014	-17.3264	-57.0862	-162.359	15.1873	-48.7278	-146.425	-6.86954	-55.8632	-117.75	-18.2508	-49.7463	-167.798	67.3974	-32.3889	-173.186	84.5736	-4.31325	-147.126	96.2821	-26.5991	
94	0.783333	-114.329	100.247	-12.0748	-79.5135	85.4031	-25.4911	-64.5072	65.0336	-43.5615	-56.2123	44.1258	-49.8972	-114.52	52.2921	-87.4339	-101.177	25.1135	-93.5428	-77.1353	10.1594	-80.1062	-129.738	32.3157	-87.4605	-106.056	7.99799	-92.1798	-81.5635	-8.74747	-67.719	-144.594	15.9413	-71.2021	-122.197	-4.61986	-76.8949	-95.5992	-16.7968	-56.4119	-155.646	9.29833	-46.6153	-141.658	-12.2852	-51.4998	-107.895	-18.5403	-50.4876	-166.596	60.7968	-29.8873	-177.375	77.9952	-3.95609	-152.717	90.8432	-27.9806	
95	0.791667	-120.153	102.634	-16.8306	-86.5613	93.0193	-29.741	-72.2272	73.6801	-49.8881	-54.6991	55.3522	-56.9099	-120.764	50.2909	-90.2966	-101.674	25.5703	-96.5728	-73.322	13.7261	-82.0568	-133.868	27.4948	-86.2079	-109.376	10.1185	-94.7184	-77.853	-2.52697	-72.7973	-142.867	11.1915	-69.3641	-119.648	-5.97596	-75.9813	-91.7698	-11.2321	-60.8512	-153.412	4.33787	-41.0967	-127.965	-14.2594	-51.8015	-99.0007	-10.9834	-52.1755	-170.539	51.8582	-31.0337	-176.64	71.4182	-1.62444	-156.593	91.1968	-31.7979	
96	0.8	-125.774	103.897	-21.3985	-95.441	95.4877	-38.2854	-74.4857	82.2122	-59.0773	-62.2455	61.5086	-66.506	-126.961	52.0175	-90.481	-104.483	31.0666	-103.787	-74.0656	19.3497	-91.3054	-136.732	28.0522	-83.9982	-108.429	8.21567	-95.466	-76.9816	3.41293	-81.5399	-140.666	12.4308	-71.8209	-112.971	-4.71615	-80.0319	-85.8247	-5.95288	-65.1571	-145.575	1.67464	-45.404	-122.433	-11.0015	-54.623	-93.9741	-9.73305	-54.051	-169.989	46.1027	-28.2303	-180.707	62.7335	-1.53553	-160.605	87.7819	-28.8241	
97	0.808333	-133.569	104.952	-22.9072	-102.934	102.084	-42.9909	-87.024	87.8351	-61.1543	-69.3292	66.7017	-75.3251	-135.093	54.7632	-91.9001	-109.281	32.8892	-107.83	-77.4748	26.7332	-100.37	-139.62	25.797	-84.8401	-108.766	11.9227	-100.474	-75.3402	11.8652	-89.8047	-140.272	11.9077	-72.1331	-112.696	-3.95355	-81.5432	-82.6442	-1.43883	-71.3918	-141.692	1.712	-45.3233	-117.866	-7.96275	-58.8885	-88.6066	-4.84616	-62.1507	-170.182	45.579	-28.7322	-178.712	59.6417	4.54774	-166.642	80.4214	-30.7334	
98	0.816667	-140.379	109.646	-25.0517	-109.856	109.434	-47.2282	-94.3781	93.544	-70.9579	-80.1922	74.5707	-80.0081	-141.335	53.2087	-91.5359	-116.375	35.7751	-110.041	-86.1917	31.5457	-107.331	-142.676	27.4216	-87.368	-116.924	16.7983	-104.473	-76.9134	17.7272	-95.8873	-140.104	11.255	-72.0266	-114.172	-0.74992	-84.0754	-84.0509	4.50225	-79.9513	-138.169	3.35941	-45.7955	-116.273	-4.49844	-60.8515	-87.1207	-1.93865	-69.5035	-169.571	41.4442	-26.9806	-178.356	55.8796	6.31083	-170.409	82.4567	-26.6585	
99	0.825	-147.022	105.313	-27.5895	-120.092	108.704	-52.107	-104.267	100.462	-73.1867	-87.1197	82.4612	-85.6028	-147.293	51.4779	-94.2854	-127.668	37.1356	-111.631	-92.8999	35.2869	-112.018	-148.275	27.7194	-87.4182	-119.085	18.5194	-108.086	-81.5936	22.7624	-102.824	-140.514	10.4716	-73.608	-114.689	4.78602	-89.2489	-84.5233	11.3436	-86.3326	-139.343	5.95927	-45.8973	-118.663	-3.92578	-61.2494	-93.3072	0.43033	-73.2139	-172.66	38.6652	-23.8996	-179.072	54.0472	4.08165	-177.777	77.806	-24.7633	
